<svg id="Capa_1" enable-background="new 0 0 512 512" height="512" viewBox="0 0 512 512" width="512" xmlns="http://www.w3.org/2000/svg"><g><g><path d="m365.959 66h-219.918c-11.363 0-21.751 6.42-26.833 16.584l-11.708 23.416 148.5 23.436 148.5-23.436-11.708-23.416c-5.082-10.164-15.47-16.584-26.833-16.584z" fill="#565e75"/></g><g><path d="m236 86c0-11.046 8.954-20 20-20h-109.959c-11.363 0-21.751 6.42-26.833 16.584l-11.708 23.416 148.5 23.436v-23.436c-11.046 0-20-8.954-20-20z" fill="#404656"/></g><g><path d="m107.5 106h297v180h-297z" fill="#6e768f"/></g><g><path d="m72.466 446c-35.88 0-64.966-29.086-64.966-64.966v-175.034h160l-30.952 185.715c-5.221 31.325-32.324 54.285-64.082 54.285z" fill="#fae0bd"/></g><g><path d="m439.534 446c35.88 0 64.966-29.086 64.966-64.966v-175.034h-160l30.952 185.715c5.221 31.325 32.324 54.285 64.082 54.285z" fill="#fae0bd"/></g><g><path d="m7.5 303.872c25.43 25.978 60.862 42.128 100 42.128 12.992 0 25.573-1.786 37.519-5.113l22.481-134.887h-160z" fill="#f8c7a5"/></g><g><circle cx="107.5" cy="206" fill="#fbf1cf" r="100"/></g><g><path d="m87.5 286c0-11.046 8.954-20 20-20v-120c-11.046 0-20-8.954-20-20s8.954-20 20-20c-55.228 0-100 44.771-100 100s44.772 100 100 100c-11.046 0-20-8.954-20-20z" fill="#fae0bd"/></g><g><path d="m504.5 303.872v-97.872h-160l22.481 134.887c11.946 3.327 24.527 5.113 37.519 5.113 39.138 0 74.57-16.15 100-42.128z" fill="#f8c7a5"/></g><g><circle cx="404.5" cy="206" fill="#fbf1cf" r="100"/></g><g><path d="m384.5 286c0-11.046 8.954-20 20-20v-120c-11.046 0-20-8.954-20-20s8.954-20 20-20c-55.228 0-100 44.771-100 100s44.772 100 100 100c-11.046 0-20-8.954-20-20z" fill="#fae0bd"/></g><g><circle cx="187.5" cy="306" fill="#565e75" r="45"/></g><g><path d="m187.5 306c0-16.653 9.053-31.183 22.5-38.965-6.62-3.831-14.301-6.035-22.5-6.035-24.853 0-45 20.147-45 45s20.147 45 45 45c8.199 0 15.88-2.204 22.5-6.035-13.447-7.782-22.5-22.312-22.5-38.965z" fill="#404656"/></g><g><circle cx="324.5" cy="306" fill="#565e75" r="45"/></g><g><path d="m324.5 306c0-16.653 9.053-31.183 22.5-38.965-6.62-3.831-14.301-6.035-22.5-6.035-24.853 0-45 20.147-45 45s20.147 45 45 45c8.199 0 15.88-2.204 22.5-6.035-13.447-7.782-22.5-22.312-22.5-38.965z" fill="#404656"/></g><g><path d="m147.5 186h-20v-20c0-11.046-8.954-20-20-20-11.046 0-20 8.954-20 20v20h-20c-11.046 0-20 8.954-20 20s8.954 20 20 20h20v20c0 11.046 8.954 20 20 20 11.046 0 20-8.954 20-20v-20h20c11.046 0 20-8.954 20-20s-8.954-20-20-20z" fill="#6e768f"/></g><g><path d="m117.5 226c-11.046 0-20-8.954-20-20s8.954-20 20-20h10v-20c0-11.046-8.954-20-20-20-11.046 0-20 8.954-20 20v20h-20c-11.046 0-20 8.954-20 20s8.954 20 20 20h20v20c0 11.046 8.954 20 20 20 11.046 0 20-8.954 20-20v-20z" fill="#565e75"/></g><g><path d="m444.5 186h-20v-20c0-11.046-8.954-20-20-20-11.046 0-20 8.954-20 20v20h-20c-11.046 0-20 8.954-20 20s8.954 20 20 20h20v20c0 11.046 8.954 20 20 20 11.046 0 20-8.954 20-20v-20h20c11.046 0 20-8.954 20-20s-8.954-20-20-20z" fill="#6e768f"/></g><g><path d="m414.5 226c-11.046 0-20-8.954-20-20s8.954-20 20-20h10v-20c0-11.046-8.954-20-20-20-11.046 0-20 8.954-20 20v20h-20c-11.046 0-20 8.954-20 20s8.954 20 20 20h20v20c0 11.046 8.954 20 20 20 11.046 0 20-8.954 20-20v-20z" fill="#565e75"/></g><g><path d="m67.5 233.5h12.5v12.5c0 15.164 12.336 27.5 27.5 27.5s27.5-12.336 27.5-27.5v-12.5h12.5c15.164 0 27.5-12.336 27.5-27.5s-12.336-27.5-27.5-27.5h-12.5v-12.5c0-15.164-12.336-27.5-27.5-27.5s-27.5 12.336-27.5 27.5v12.5h-12.5c-15.164 0-27.5 12.336-27.5 27.5s12.336 27.5 27.5 27.5zm0-40h20c4.142 0 7.5-3.358 7.5-7.5v-20c0-6.893 5.607-12.5 12.5-12.5s12.5 5.607 12.5 12.5v20c0 4.142 3.358 7.5 7.5 7.5h20c6.893 0 12.5 5.607 12.5 12.5s-5.607 12.5-12.5 12.5h-20c-4.142 0-7.5 3.358-7.5 7.5v20c0 6.893-5.607 12.5-12.5 12.5s-12.5-5.607-12.5-12.5v-20c0-4.142-3.358-7.5-7.5-7.5h-20c-6.893 0-12.5-5.607-12.5-12.5s5.607-12.5 12.5-12.5z"/><path d="m409.189 98.608-9.689-19.379c-6.394-12.786-19.246-20.729-33.541-20.729h-163.459c-4.142 0-7.5 3.358-7.5 7.5s3.358 7.5 7.5 7.5h163.459c8.577 0 16.289 4.766 20.125 12.438l6.281 12.562h-272.73l6.281-12.562c3.836-7.672 11.548-12.438 20.125-12.438h26.459c4.142 0 7.5-3.358 7.5-7.5s-3.358-7.5-7.5-7.5h-26.459c-14.295 0-27.147 7.943-33.541 20.729l-9.689 19.379c-57.108 2.464-102.811 49.688-102.811 107.392v175.034c0 39.958 32.508 72.466 72.466 72.466 35.57 0 65.632-25.466 71.479-60.552l8.052-48.313c9.353 8.602 21.823 13.865 35.503 13.865 28.949 0 52.5-23.551 52.5-52.5 0-4.307-.533-8.491-1.516-12.5h35.031c-.983 4.009-1.516 8.193-1.516 12.5 0 28.949 23.551 52.5 52.5 52.5 13.679 0 26.149-5.263 35.502-13.865l8.052 48.313c5.848 35.086 35.909 60.552 71.479 60.552 39.958 0 72.466-32.508 72.466-72.466v-175.034c.002-57.704-45.701-104.928-102.809-107.392zm-301.689 14.892c51.005 0 92.5 41.495 92.5 92.5 0 16.839-4.528 33.192-13.122 47.516-24.501.287-45.009 17.436-50.45 40.363-9.302 3.062-19.014 4.621-28.928 4.621-51.005 0-92.5-41.495-92.5-92.5s41.495-92.5 92.5-92.5zm-35.034 325c-31.687 0-57.466-25.779-57.466-57.466v-120.322c18.747 31.575 53.19 52.788 92.5 52.788 9.417 0 18.679-1.221 27.659-3.608.46 6.248 2.016 12.192 4.481 17.646l-10.491 62.944c-4.637 27.824-28.476 48.018-56.683 48.018zm115.034-95c-20.678 0-37.5-16.822-37.5-37.5s16.822-37.5 37.5-37.5 37.5 16.822 37.5 37.5-16.822 37.5-37.5 37.5zm44.698-65c-6.648-10.766-17.071-18.96-29.412-22.724 8.007-15.298 12.214-32.311 12.214-49.776 0-39.31-21.213-73.753-52.788-92.5h187.507c-5.517 3.268-10.763 7.04-15.662 11.294-19.333 16.784-32.067 39.9-35.856 65.09-.616 4.096 2.205 7.916 6.301 8.532 4.1.62 7.917-2.205 8.532-6.301 6.742-44.818 46.063-78.615 91.466-78.615 51.005 0 92.5 41.495 92.5 92.5s-41.495 92.5-92.5 92.5c-9.914 0-19.625-1.559-28.928-4.621-5.441-22.926-25.946-40.074-50.445-40.363-6.224-10.355-10.293-21.653-12.095-33.649-.616-4.096-4.438-6.924-8.531-6.302-4.096.615-6.918 4.435-6.303 8.531 1.785 11.876 5.479 23.163 11 33.685-12.334 3.766-22.75 11.958-29.396 22.719zm92.302 65c-20.678 0-37.5-16.822-37.5-37.5s16.822-37.5 37.5-37.5 37.5 16.822 37.5 37.5-16.822 37.5-37.5 37.5zm172.5 37.534c0 31.687-25.779 57.466-57.466 57.466-28.208 0-52.046-20.194-56.684-48.018l-10.491-62.944c2.464-5.454 4.02-11.398 4.481-17.646 8.98 2.387 18.243 3.608 27.66 3.608 39.31 0 73.753-21.213 92.5-52.788z"/><path d="m364.5 233.5h12.5v12.5c0 15.164 12.336 27.5 27.5 27.5s27.5-12.336 27.5-27.5v-12.5h12.5c15.164 0 27.5-12.336 27.5-27.5s-12.336-27.5-27.5-27.5h-12.5v-12.5c0-15.164-12.336-27.5-27.5-27.5s-27.5 12.336-27.5 27.5v12.5h-12.5c-15.164 0-27.5 12.336-27.5 27.5s12.336 27.5 27.5 27.5zm0-40h20c4.142 0 7.5-3.358 7.5-7.5v-20c0-6.893 5.607-12.5 12.5-12.5s12.5 5.607 12.5 12.5v20c0 4.142 3.358 7.5 7.5 7.5h20c6.893 0 12.5 5.607 12.5 12.5s-5.607 12.5-12.5 12.5h-20c-4.142 0-7.5 3.358-7.5 7.5v20c0 6.893-5.607 12.5-12.5 12.5s-12.5-5.607-12.5-12.5v-20c0-4.142-3.358-7.5-7.5-7.5h-20c-6.893 0-12.5-5.607-12.5-12.5s5.607-12.5 12.5-12.5z"/></g></g></svg>