<svg id="Capa_1" enable-background="new 0 0 512 512" height="512" viewBox="0 0 512 512" width="512" xmlns="http://www.w3.org/2000/svg"><g><path d="m364.562 173.037c-8.496 0-16.748.587-24.641 2.379-1.619-42.751-36.772-76.916-79.923-76.916-31.987 0-59.579 18.778-72.38 45.905-8.165-2.218-16.754-3.408-25.621-3.408-53.848 0-97.501 43.648-97.501 97.491 0 6.353.615 12.562 1.776 18.576-32.889 10.198-56.697 41.038-56.27 77.375.507 43.216 37.319 78.556 80.539 79.053 31.439.361 58.567-6.578 71.457-33.117 12.964 26.692 40.331 33.096 72.001 33.096 21 0 48.651-4.547 63.001-25.997 7.849 20.789 41.25 25.997 55.001 25.997 29.5 0 48-15.998 48-15.998s15.5 15.983 48.338 15.983c29.611 0 53.579-25.213 53.662-54.821.08-28.332-21.27-51.683-48.755-54.791 4.169-11.448 6.256-23.896 5.797-36.888-.002 0-.043-93.919-94.481-93.919z" fill="#ffe6b4"/><g fill="#ffcd69"><circle cx="173.997" cy="217.002" r="20"/><circle cx="84.996" cy="334.004" r="20"/><circle cx="224.997" cy="334.004" r="20"/></g><path d="m268.998 147.001h190.002v140.002h-190.002z" fill="#5cddf6"/><g><circle cx="400.528" cy="397.974" r="10"/><path d="m508.55 337.534c-2.22-6.5-5.44-12.591-9.59-18.101-4.1-5.45-9-10.2-14.58-14.13-5.64-3.96-11.83-6.99-18.4-9 .232-.94 3.02-6.833 3.02-9.3v-140.002c0-5.523-4.477-10-10-10h-119.16c-5.278-10.139-12.478-19.281-21.292-26.84-7.98-6.851-16.99-12.2-26.79-15.891-10.13-3.83-20.82-5.77-31.76-5.77-8.11 0-16.151 1.08-23.89 3.21-7.51 2.06-14.74 5.109-21.48 9.05-13.29 7.78-24.44 18.901-32.25 32.17-6.68-1.28-13.52-1.93-20.35-1.93h-.03c-14.51 0-28.591 2.84-41.841 8.44-12.81 5.42-24.3 13.17-34.17 23.04s-17.63 21.361-23.04 34.161c-5.6 13.26-8.45 27.33-8.45 41.851 0 3.989.23 8.02.67 11.989-8.03 3.37-15.52 7.891-22.28 13.431-6.71 5.52-12.58 11.96-17.45 19.15-10.092 14.901-15.427 32.891-15.437 50.971.14 11.901 2.705 24.04 7.585 34.99 4.7 10.511 11.32 19.971 19.69 28.121 8.32 8.12 17.95 14.53 28.6 19.071 11.03 4.69 23.845 7.145 35.745 7.285 8.72-.01 17.575-.545 24.635-1.655 8.06-1.26 15.18-3.22 21.76-5.99 9.48-3.96 17.55-9.78 23.99-17.29 6.72 7.79 15.22 13.731 25.281 17.66 12.44 4.92 27.28 7.22 46.71 7.25 14.09-.02 26.25-1.81 37.19-5.48 9.67-3.24 18-7.99 24.76-14.12 1.5 1.54 3.16 3.01 4.94 4.37 7.15 5.44 16.111 9.43 27.381 12.199 10.85 2.61 19.52 3.021 23.73 3.03 2.68 0 5.4-.12 8.09-.36 5.49-.489 9.56-5.359 9.07-10.85-.23-2.51-1.37-4.82-3.23-6.51-2.07-1.88-4.83-2.811-7.62-2.57-2.08.19-4.3.29-6.41.29-6.37 0-17.38-1.45-26.281-4.64-5.01-1.761-9.36-3.99-12.56-6.471-3.34-2.56-5.53-5.319-6.7-8.42-1.32-3.47-5.105-6.01-8.785-6.44-3.35 0-7.025 1.63-8.885 4.41-5.27 7.85-13.08 13.46-23.89 17.12-10.82 3.67-22.63 4.44-30.63 4.44h-.46c-16.46 0-29.23-1.91-39.031-5.83-11.25-4.58-18.55-11.25-23.69-21.64-1.66-3.42-5.19-5.63-8.99-5.63s-7.33 2.21-9 5.63c-5.02 10.19-12.05 16.8-22.781 21.44-9.44 4.021-22.813 6.057-38.054 6.057-18.4-.21-37.467-7.557-50.927-20.678-13.48-13.159-21.02-30.677-21.24-48.797-.02-30.84 19.77-58.264 49.24-67.415 4.87-1.51 7.82-6.43 6.85-11.44-1.05-5.481-1.59-11.101-1.59-16.68 0-23.361 9.11-45.331 25.63-61.871 16.54-16.521 38.51-25.62 61.871-25.63 7.79.01 15.53 1.04 23 3.06.86.24 1.75.36 2.63.36 3.85 0 7.39-2.25 9.03-5.74 11.53-24.401 36.39-40.171 63.321-40.171h.04c23.203 0 43.732 11.155 56.455 28.5h-47.474c-5.523 0-10 4.478-10 10v20h-24c-5.523 0-10 4.478-10 10 0 5.523 4.477 10 10 10h24v20h-56.721c-4.128-11.639-15.244-20-28.28-20-16.542 0-30 13.458-30 30s13.458 30 30 30c13.036 0 24.152-8.361 28.28-20h56.721v40.001h-113.999c-5.523 0-10 4.478-10 10v47.001h-21.72c-4.128-11.639-15.244-20-28.28-20-16.542 0-30 13.458-30 30s13.458 30 30 30c13.037 0 24.152-8.361 28.28-20h31.72c5.523 0 10-4.478 10-10v-47.001h104.001c0 5.523 4.477 10 10 10h14v27h-29.72c-4.128-11.639-15.244-20-28.28-20-16.542 0-30 13.458-30 30s13.458 30 30 30c13.036 0 24.152-8.361 28.28-20h39.721c5.523 0 10-4.478 10-10v-37.001h20v37.001c0 5.523 4.477 10 10 10s10-4.478 10-10v-37.001h20v37.001c0 5.523 4.477 10 10 10s10-4.478 10-10v-37.001h20v37.001c0 5.523 4.477 10 10 10s10-4.478 10-10v-37.001h21.999c-.364 1.145-.737 2.288-1.15 3.42-1.06 2.899-.73 6.06.89 8.69 1.62 2.62 4.31 4.32 7.38 4.671 22.75 2.569 39.901 21.78 39.881 44.69v.13c-.03 11.62-4.74 23.13-12.94 31.581-8.31 8.55-19.22 13.271-30.721 13.271-1.89 0-3.79-.061-5.65-.181-5.5-.37-10.27 3.87-10.62 9.33-.36 5.51 3.83 10.271 9.33 10.63 2.26.141 4.59.221 6.94.221h.01c8.61 0 16.981-1.771 24.89-5.25 7.57-3.341 14.36-8.08 20.18-14.091 5.79-5.98 10.35-12.9 13.56-20.579 3.3-7.931 4.99-16.301 5.02-24.87v-.03c0-.11 0-.16 0-.16-.008-7.167-1.168-14.217-3.448-20.937zm-334.553-110.532c-5.514 0-10-4.486-10-10s4.486-10 10-10 10 4.486 10 10-4.486 10-10 10zm-89.001 117.002c-5.514 0-10-4.486-10-10s4.486-10 10-10 10 4.486 10 10c0 5.513-4.486 10-10 10zm140.001 0c-5.514 0-10-4.486-10-10s4.486-10 10-10 10 4.486 10 10c0 5.513-4.486 10-10 10zm224.002-67.001h-170.001v-120.002h170.002v120.002z"/><circle cx="408.999" cy="237.002" r="10"/><circle cx="363.999" cy="237.002" r="10"/><circle cx="318.998" cy="237.002" r="10"/><path d="m338.998 207.002h50c5.523 0 10-4.478 10-10 0-5.523-4.477-10-10-10h-50c-5.523 0-10 4.478-10 10s4.477 10 10 10z"/></g></g></svg>