<svg id="Capa_1" enable-background="new 0 0 512 512" height="512" viewBox="0 0 512 512" width="512" xmlns="http://www.w3.org/2000/svg"><g><circle cx="256" cy="256" fill="#fff" r="246"/><circle cx="256" cy="256" fill="#ccf5fc" r="206"/><path d="m156 156h200v200h-200z" fill="#a0e5a5"/><circle cx="216" cy="216" fill="#ffcd69" r="20"/><circle cx="216" cy="296" fill="#ffcd69" r="20"/><g><path d="m506.8 204.395c-3.37-16.441-8.39-32.611-14.92-48.062-6.42-15.171-14.36-29.801-23.6-43.482-9.16-13.56-19.68-26.301-31.26-37.891-11.59-11.581-24.33-22.101-37.89-31.262-13.68-9.24-28.31-17.181-43.48-23.601-15.45-6.53-31.62-11.55-48.06-14.921-33.73-6.9-69.45-6.9-103.18 0-16.44 3.37-32.61 8.391-48.06 14.921-15.17 6.421-29.8 14.361-43.48 23.601-13.56 9.161-26.3 19.681-37.89 31.262-11.58 11.589-22.1 24.33-31.26 37.89-9.24 13.681-17.18 28.311-23.6 43.482-6.53 15.451-11.55 31.622-14.92 48.062-3.45 16.862-5.2 34.223-5.2 51.594 0 17.37 1.75 34.732 5.2 51.592 3.37 16.441 8.39 32.611 14.92 48.062 6.42 15.171 14.36 29.801 23.6 43.482 9.16 13.561 19.68 26.301 31.26 37.892 11.59 11.58 24.33 22.101 37.89 31.261 13.68 9.241 28.31 17.181 43.48 23.601 15.45 6.53 31.62 11.55 48.06 14.921 16.86 3.45 34.22 5.2 51.59 5.2l.03-.05v.051c26.34 0 52.32-3.99 77.22-11.871 24.1-7.61 46.91-18.771 67.78-33.151 4.54-3.131 5.69-9.371 2.57-13.911-1.87-2.71-4.95-4.33-8.25-4.33-2.02 0-3.98.61-5.66 1.77-39.42 27.141-85.65 41.492-133.69 41.492-63.03 0-122.29-24.551-166.88-69.123-44.57-44.592-69.12-103.856-69.12-166.888 0-63.033 24.55-122.296 69.12-166.888 44.59-44.573 103.85-69.114 166.88-69.124 63.03.01 122.29 24.551 166.88 69.123 44.57 44.593 69.12 103.855 69.12 166.889 0 48.102-14.38 94.374-41.57 133.817-1.52 2.2-2.09 4.86-1.61 7.48.49 2.63 1.96 4.91 4.16 6.43 1.68 1.16 3.64 1.77 5.67 1.77 3.29 0 6.37-1.62 8.24-4.33 14.41-20.891 25.59-43.712 33.22-67.843 7.89-24.932 11.89-50.953 11.89-77.324 0-17.371-1.75-34.732-5.2-51.593z"/><path d="m408.735 103.265c-40.797-40.797-95.039-63.265-152.735-63.265s-111.938 22.468-152.735 63.265c-40.797 40.797-63.265 95.039-63.265 152.735s22.468 111.938 63.265 152.735 95.039 63.265 152.735 63.265 111.938-22.468 152.735-63.265 63.265-95.039 63.265-152.735-22.468-111.938-63.265-152.735zm-152.735 348.735c-108.075 0-196-87.925-196-196s87.925-196 196-196 196 87.925 196 196-87.925 196-196 196z"/><path d="m396 246c5.523 0 10-4.477 10-10s-4.477-10-10-10h-30v-20h30c5.523 0 10-4.477 10-10s-4.477-10-10-10h-30v-30c0-5.523-4.477-10-10-10h-30v-30c0-5.523-4.477-10-10-10s-10 4.477-10 10v30h-20v-30c0-5.523-4.477-10-10-10s-10 4.477-10 10v30h-20v-30c0-5.523-4.477-10-10-10s-10 4.477-10 10v30h-20v-30c0-5.523-4.477-10-10-10s-10 4.477-10 10v30h-30c-5.523 0-10 4.477-10 10v30h-30c-5.523 0-10 4.477-10 10s4.477 10 10 10h30v20h-30c-5.523 0-10 4.477-10 10s4.477 10 10 10h30v20h-30c-5.523 0-10 4.477-10 10s4.477 10 10 10h30v20h-30c-5.523 0-10 4.477-10 10s4.477 10 10 10h30v30c0 5.523 4.477 10 10 10h30v30c0 5.523 4.477 10 10 10s10-4.477 10-10v-30h20v30c0 5.523 4.477 10 10 10s10-4.477 10-10v-30h20v30c0 5.523 4.477 10 10 10s10-4.477 10-10v-30h20v30c0 5.523 4.477 10 10 10s10-4.477 10-10v-30h30c5.523 0 10-4.477 10-10v-30h30c5.523 0 10-4.477 10-10s-4.477-10-10-10h-30v-20h30c5.523 0 10-4.477 10-10s-4.477-10-10-10h-30v-20zm-50 40h-20v-120h20zm0 60h-60v-130c0-5.523-4.477-10-10-10h-31.72c-4.128-11.639-15.243-20-28.28-20-16.542 0-30 13.458-30 30s13.458 30 30 30c13.036 0 24.152-8.361 28.28-20h21.72v120h-100v-40h21.72c4.128 11.639 15.243 20 28.28 20 16.542 0 30-13.458 30-30s-13.458-30-30-30c-13.036 0-24.152 8.361-28.28 20h-21.72v-120h140v130c0 5.523 4.477 10 10 10h30zm-120-130c0 5.514-4.486 10-10 10s-10-4.486-10-10 4.486-10 10-10 10 4.486 10 10zm-20 80c0-5.514 4.486-10 10-10s10 4.486 10 10-4.486 10-10 10-10-4.486-10-10z"/><circle cx="429.888" cy="430" r="10"/></g></g></svg>